<svg width="1900" height="1060" viewBox="0 0 1900 1060" fill="none" xmlns="http://www.w3.org/2000/svg">
<g clip-path="url(#clip0_1_3105)">
<path d="M785.192 522.8H817.192V565.6H785.192V616H738.792V565.6H601.192V522.8L697.592 336H747.592L651.192 522.8H738.792V450H785.192V522.8ZM1030.82 581.6C1011.62 608 984.69 621.2 950.023 621.2C915.623 621.2 888.557 608 868.823 581.6C849.623 555.2 840.023 520 840.023 476C840.023 432 849.623 396.8 868.823 370.4C888.557 344 915.623 330.8 950.023 330.8C984.69 330.8 1011.62 344 1030.82 370.4C1050.29 396.533 1060.02 431.733 1060.02 476C1060.02 520.267 1050.29 555.467 1030.82 581.6ZM950.023 576.4C970.823 576.4 986.69 567.733 997.623 550.4C1008.56 533.067 1014.02 508.267 1014.02 476C1014.02 443.733 1008.56 418.933 997.623 401.6C986.69 384.267 970.823 375.6 950.023 375.6C929.49 375.6 913.623 384.267 902.423 401.6C891.49 418.933 886.023 443.733 886.023 476C886.023 508.267 891.49 533.067 902.423 550.4C913.623 567.733 929.49 576.4 950.023 576.4ZM1269.18 522.8H1301.18V565.6H1269.18V616H1222.78V565.6H1085.18V522.8L1181.58 336H1231.58L1135.18 522.8H1222.78V450H1269.18V522.8Z" fill="#FFF8EF"/>
<path d="M738.306 724.52C734.092 724.52 730.599 723.133 727.826 720.36C725.052 717.533 723.666 714.08 723.666 710C723.666 705.893 725.052 702.453 727.826 699.68C730.572 696.88 734.066 695.48 738.306 695.48C740.839 695.48 743.172 696.08 745.306 697.28C747.466 698.48 749.146 700.107 750.346 702.16L746.346 704.48C745.599 703.093 744.506 702 743.066 701.2C741.652 700.373 740.066 699.96 738.306 699.96C735.346 699.96 732.919 700.907 731.026 702.8C729.186 704.667 728.266 707.067 728.266 710C728.266 712.933 729.186 715.333 731.026 717.2C732.919 719.093 735.346 720.04 738.306 720.04C740.066 720.04 741.666 719.64 743.106 718.84C744.546 718.013 745.626 716.907 746.346 715.52L750.346 717.8C749.199 719.827 747.532 721.467 745.346 722.72C743.239 723.92 740.892 724.52 738.306 724.52ZM751.772 696H772.172V700.4H764.292V724H759.692V700.4H751.772V696ZM775.573 696H785.893C788.533 696 790.733 696.88 792.493 698.64C794.28 700.4 795.173 702.587 795.173 705.2C795.173 707.787 794.28 709.973 792.493 711.76C790.733 713.52 788.533 714.4 785.893 714.4H780.173V724H775.573V696ZM780.173 710.08H785.893C787.253 710.08 788.373 709.627 789.253 708.72C790.133 707.787 790.573 706.613 790.573 705.2C790.573 703.787 790.133 702.627 789.253 701.72C788.373 700.787 787.253 700.32 785.893 700.32H780.173V710.08ZM819.555 724H814.595L812.635 718.36H800.715L798.755 724H793.755L803.915 696H809.435L819.555 724ZM806.675 701.4L802.235 714.04H811.115L806.675 701.4ZM839.166 707.48V696H843.766V724H839.166V711.88H827.166V724H822.566V696H827.166V707.48H839.166ZM870.763 724H866.163V705L852.963 724H849.363V696H853.963V715L867.163 696H870.763V724ZM896.955 696V719.6H899.955V729.36H895.355V724H876.355V696H880.955V719.6H892.355V696H896.955ZM927.289 724H922.329L920.369 718.36H908.449L906.489 724H901.489L911.649 696H917.169L927.289 724ZM914.409 701.4L909.969 714.04H918.849L914.409 701.4Z" fill="#FFF8EF"/>
<path d="M956.9 707.48V696H961.5V724H956.9V711.88H944.9V724H940.3V696H944.9V707.48H956.9ZM971.697 712.04V719.6H984.097V724H967.097V696H983.897V700.4H971.697V707.68H982.897V712.04H971.697ZM1014.91 707.48V696H1019.51V724H1014.91V711.88H1002.91V724H998.308V696H1002.91V707.48H1014.91ZM1048.3 724H1043.34L1041.38 718.36H1029.46L1027.5 724H1022.5L1032.66 696H1038.18L1048.3 724ZM1035.42 701.4L1030.98 714.04H1039.86L1035.42 701.4ZM1067.64 693.2H1056.44V689.44H1067.64V693.2ZM1072.72 724H1068.12V705L1054.92 724H1051.32V696H1055.92V715L1069.12 696H1072.72V724ZM1099.31 696V719.6H1102.31V729.36H1097.71V724H1080.71V729.36H1076.11V719.6H1078.71C1080.33 717.493 1081.15 714.28 1081.15 709.96V696H1099.31ZM1083.75 719.6H1094.71V700.32H1085.75V710.04C1085.75 714.2 1085.08 717.387 1083.75 719.6ZM1110.92 712.04V719.6H1123.32V724H1106.32V696H1123.12V700.4H1110.92V707.68H1122.12V712.04H1110.92ZM1144.13 707.48V696H1148.73V724H1144.13V711.88H1132.13V724H1127.53V696H1132.13V707.48H1144.13ZM1177.52 724H1172.56L1170.6 718.36H1158.68L1156.72 724H1151.72L1161.88 696H1167.4L1177.52 724ZM1164.64 701.4L1160.2 714.04H1169.08L1164.64 701.4Z" fill="#FF8413"/>
<path fill-rule="evenodd" clip-rule="evenodd" d="M1126.45 659.708L1095.23 676.515C1092.31 678.063 1089.61 674.017 1092.08 671.573L1129.52 633.305C1131.68 631.129 1135.06 633.368 1134.17 636.318L1127.95 657.78C1127.7 658.631 1127.09 659.315 1126.45 659.708Z" fill="#FFF8EF"/>
<path fill-rule="evenodd" clip-rule="evenodd" d="M1150.74 726.061L1132.23 720.903C1130.5 720.407 1130.76 717.701 1132.61 717.654L1160.93 716.396C1162.55 716.338 1163.18 718.566 1161.82 719.433L1152.01 725.848C1151.62 726.103 1151.14 726.149 1150.74 726.061Z" fill="#FFF8EF"/>
<path fill-rule="evenodd" clip-rule="evenodd" d="M1181.8 672.027L1159.28 678.431C1157.17 679.013 1155.93 675.977 1157.86 674.744L1187.19 655.243C1188.88 654.139 1190.8 656.096 1189.84 657.89L1183.03 670.987C1182.76 671.508 1182.28 671.865 1181.8 672.027Z" fill="#FFF8EF"/>
<path fill-rule="evenodd" clip-rule="evenodd" d="M306.533 1044.48L73.3172 1111.03C51.4631 1117.09 37.7663 1087.41 57.5748 1074.97L358.589 878.447C375.935 867.321 396.432 886.273 386.856 904.088L319.056 1034.06C316.385 1039.22 311.406 1042.81 306.533 1044.48Z" fill="#FFF8EF"/>
<path fill-rule="evenodd" clip-rule="evenodd" d="M274.893 850.827L130.853 787.093C117.428 781.032 122.713 760.466 137.725 762.48L368.908 789.338C382.148 790.986 384.659 809.009 372.572 813.945L285.43 850.82C281.979 852.294 278.016 852.02 274.893 850.827Z" fill="white"/>
<path fill-rule="evenodd" clip-rule="evenodd" d="M1593.47 15.5229L1826.68 -51.0326C1848.54 -57.0918 1862.23 -27.4115 1842.43 -14.9712L1541.41 181.553C1524.07 192.679 1503.57 173.727 1513.14 155.912L1580.94 25.9436C1583.62 20.7813 1588.59 17.19 1593.47 15.5229Z" fill="#FFF8EF"/>
<path fill-rule="evenodd" clip-rule="evenodd" d="M1625.11 209.173L1769.15 272.907C1782.57 278.968 1777.29 299.534 1762.27 297.52L1531.09 270.662C1517.85 269.014 1515.34 250.991 1527.43 246.055L1614.57 209.18C1618.02 207.706 1621.98 207.98 1625.11 209.173Z" fill="white"/>
</g>
<defs>
<clipPath id="clip0_1_3105">
<rect width="1900" height="1060" rx="50" fill="white"/>
</clipPath>
</defs>
</svg>
